<svg xmlns="http://www.w3.org/2000/svg" xmlns:xlink="http://www.w3.org/1999/xlink" version="1.1" x="0px" y="0px" viewBox="0 0 100 125" style="enable-background:new 0 0 100 100;" xml:space="preserve"><g><path d="M41.1,66.9c0-1.1,0.9-2,2-2h13.8c1.1,0,2,0.9,2,2v24.5H81c3.3,0,6-2.7,6-6V43.1c0-2.2-0.9-4.3-2.5-5.9L54.7,10.6   c-2.6-2.5-6.8-2.5-9.3-0.1L15.5,37.2c-1.6,1.5-2.5,3.7-2.5,5.9v42.2c0,3.3,2.7,6,6,6h22.1V66.9z M37.1,66.9v20.5H19   c-1.1,0-2-0.9-2-2V43.1c0-1.1,0.5-2.2,1.2-3l29.9-26.7c1-1,2.7-1,3.8,0.1l29.8,26.6c0.8,0.8,1.3,1.9,1.3,3v42.2c0,1.1-0.9,2-2,2   H62.9V66.9c0-3.3-2.7-6-6-6H43.1C39.8,60.9,37.1,63.5,37.1,66.9z"/></g></svg>